HIERARCHY
ROOT Hips
{
	OFFSET 0.000000 0.000000 0.000000
	CHANNELS 6 Xposition Yposition Zposition Zrotation Yrotation Xrotation 
	JOINT LHipJoint
	{
		OFFSET 0.000000 0.000000 0.000000
		CHANNELS 3 Zrotation Yrotation Xrotation
		JOINT LeftUpLeg
		{
			OFFSET 1.363060 -1.794630 0.839290
			CHANNELS 3 Zrotation Yrotation Xrotation
			JOINT LeftLeg
			{
				OFFSET 2.448110 -6.726130 0.000000
				CHANNELS 3 Zrotation Yrotation Xrotation
				JOINT LeftFoot
				{
					OFFSET 2.562200 -7.039590 0.000000
					CHANNELS 3 Zrotation Yrotation Xrotation
					JOINT LeftToeBase
					{
						OFFSET 0.157640 -0.433110 2.322550
						CHANNELS 3 Zrotation Yrotation Xrotation
						End Site
						{
							OFFSET 0.000000 0.000000 0.000000
						}
					}
				}
			}
		}
	}
	JOINT RHipJoint
	{
		OFFSET 0.000000 0.000000 0.000000
		CHANNELS 3 Zrotation Yrotation Xrotation
		JOINT RightUpLeg
		{
			OFFSET -1.305520 -1.794630 0.839290
			CHANNELS 3 Zrotation Yrotation Xrotation
			JOINT RightLeg
			{
				OFFSET -2.542530 -6.985550 0.000000
				CHANNELS 3 Zrotation Yrotation Xrotation
				JOINT RightFoot
				{
					OFFSET -2.568260 -7.056230 0.000000
					CHANNELS 3 Zrotation Yrotation Xrotation
					JOINT RightToeBase
					{
						OFFSET -0.164730 -0.452590 2.363150
						CHANNELS 3 Zrotation Yrotation Xrotation
						End Site
						{
							OFFSET 0.000000 0.000000 0.000000
						}
					}
				}
			}
		}
	}
}
MOTION
Frames: 25
Frame Time: 0.008333
0.324707 17.225337 0.938893 -178.564073 -78.811128 -161.842822 -11.591771 3.527937 3.477658 -9.863579 17.666369 -23.318613 -2.753309 -1.265586 5.776696 2.137405 13.536452 -3.757181 1.210200 0.000000 -49.221499 8.907526 -2.623087 5.197956 5.396027 -4.630811 -21.580038 3.162852 1.816783 3.348699 -0.192976 -1.976341 0.906574 -0.991900 -0.000001 -70.399699
0.308318 17.232632 0.968464 -178.353316 -81.387612 -161.667878 -11.506680 3.515283 3.935046 -9.453833 15.997708 -24.062544 -2.718686 -1.287579 5.944579 1.994028 12.565032 -3.416846 1.230100 0.000001 -49.920900 8.970199 -2.707690 5.084903 5.881597 -5.929015 -21.239059 3.224701 1.943191 2.215370 -0.290962 -2.777116 1.431502 -1.193000 0.000000 -70.248600
0.294236 17.242263 0.998037 -178.811626 -84.111540 -160.809729 -11.412863 3.504397 4.415229 -9.059004 14.180192 -24.807540 -2.679908 -1.318164 6.051537 1.843710 11.614427 -2.925438 1.276700 0.000000 -50.692000 9.049399 -2.808287 4.993764 6.287577 -7.219308 -20.849456 3.272855 2.077142 0.913742 -0.395381 -3.647237 2.072076 -1.433000 0.000001 -70.097201
0.283145 17.254138 1.027213 173.524766 -87.157496 -152.750192 -11.417086 3.394619 4.883405 -8.733995 12.170663 -25.474794 -2.627402 -1.388409 6.098315 1.675720 10.693964 -2.264208 1.346800 -0.000001 -51.496200 9.048820 -3.011262 4.935227 6.534299 -8.546411 -20.416678 3.294959 2.183406 -0.547223 -0.524601 -4.602774 2.792849 -1.711600 0.000000 -69.960100
0.275384 17.267923 1.056109 -168.583176 -89.631975 -170.263165 -10.869805 3.631697 5.420520 -8.183145 10.201872 -26.171362 -2.610230 -1.372435 6.015702 1.560353 9.952897 -1.551571 1.432800 0.000000 -52.289600 9.587527 -2.897163 4.824776 6.932410 -9.682428 -19.850184 3.300327 2.365086 -2.024491 -0.598532 -5.516445 3.693716 -2.035800 0.000000 -69.845300
0.263663 17.279283 1.099038 5.409497 -86.533559 16.397974 -10.846198 3.622450 6.263932 -7.396351 6.931515 -27.458678 -2.462249 -1.389474 6.378318 1.465159 9.338532 -0.877930 1.530200 0.000000 -52.921500 9.577420 -3.043550 4.654177 7.632825 -11.727416 -19.533863 3.419685 2.558350 -3.826451 -0.693322 -6.538676 4.765319 -2.436200 0.000000 -69.745600
0.266087 17.296599 1.125903 6.512521 -83.674129 15.541286 -10.631398 3.635726 6.701418 -7.035913 4.788502 -27.796871 -2.420728 -1.431761 6.121060 1.326776 8.744228 0.095279 1.640800 -0.000000 -53.617000 9.828839 -3.115237 4.517083 7.619776 -12.983321 -18.854147 3.374655 2.647732 -5.316428 -0.790332 -7.438347 5.728384 -2.799599 0.000000 -69.740300
0.273120 17.315237 1.151027 7.422370 -80.869374 14.805814 -10.417118 3.628607 7.093523 -6.708006 2.653789 -27.958514 -2.383020 -1.476192 5.770185 1.198378 8.270118 1.122008 1.758500 -0.000000 -54.214400 10.091348 -3.184554 4.351563 7.491415 -14.208514 -18.091843 3.303327 2.708274 -6.755625 -0.887783 -8.320797 6.718789 -3.181099 -0.000000 -69.751300
0.285379 17.335201 1.173737 8.211329 -78.169426 14.078802 -10.206723 3.600638 7.429974 -6.424230 0.603567 -27.905799 -2.354272 -1.521606 5.331713 1.077750 7.896227 2.174479 1.878800 0.000000 -54.689400 10.340825 -3.233406 4.108084 7.289284 -15.423394 -17.871163 3.198161 2.614784 -6.730576 -0.880759 -9.060585 6.939978 -3.547300 -0.000001 -69.841700
0.302163 17.355898 1.194426 8.840659 -75.610319 13.421342 -10.009313 3.548300 7.706722 -6.179199 -1.315489 -27.684162 -2.336364 -1.565611 4.836784 0.965168 7.602095 3.214637 1.996700 -0.000001 -55.034600 10.565404 -3.263061 3.810281 7.040087 -16.602106 -18.017343 3.078199 2.415417 -5.677409 -0.785804 -9.685309 6.630324 -3.895500 0.000000 -69.975400
0.323424 17.377038 1.213069 9.327468 -73.238363 12.830360 -9.834007 3.471174 7.911455 -5.972350 -3.057746 -27.313031 -2.329034 -1.604723 4.300001 0.861113 7.370088 4.216007 2.107900 0.000000 -55.251701 10.769960 -3.285653 3.487499 6.752086 -17.758964 -18.011952 2.967401 2.217454 -4.761363 -0.689001 -10.229232 6.458960 -4.216900 0.000000 -70.164801
0.348392 17.398195 1.230171 9.668274 -71.083335 12.332976 -9.686382 3.373550 8.049561 -5.798207 -4.591696 -26.842610 -2.331603 -1.638619 3.744687 0.764921 7.177592 5.155459 2.207799 -0.000000 -55.346800 10.947087 -3.305128 3.153804 6.463581 -18.869067 -17.886393 2.872167 2.029719 -4.008898 -0.603862 -10.702977 6.429487 -4.507800 -0.000000 -70.382201
0.376640 17.419067 1.245915 9.880721 -69.165409 11.924441 -9.569645 3.260750 8.125656 -5.653394 -5.898662 -26.305391 -2.342240 -1.667088 3.184951 0.675774 7.006155 6.021231 2.292800 0.000000 -55.332900 11.093042 -3.323152 2.816965 6.199019 -19.919364 -17.666060 2.795261 1.857770 -3.430757 -0.539680 -11.114800 6.535613 -4.765300 0.000000 -70.622100
0.407370 17.439351 1.260630 9.989045 -67.494682 11.601793 -9.484522 3.139271 8.149129 -5.534960 -6.975350 -25.740128 -2.359061 -1.690654 2.632620 0.592937 6.840642 6.807593 2.360400 0.000000 -55.225800 11.206633 -3.340815 2.487030 5.976854 -20.894496 -17.383356 2.737139 1.706640 -3.031536 -0.503273 -11.477525 6.762652 -4.989900 0.000001 -70.866200
0.440037 17.458814 1.274355 10.022917 -66.066694 11.345806 -9.429993 3.014491 8.127587 -5.442135 -7.831745 -25.167887 -2.379903 -1.709177 2.095082 0.515602 6.669070 7.516243 2.408600 -0.000000 -55.044500 11.289051 -3.356491 2.166397 5.801668 -21.796939 -17.059173 2.696562 1.578123 -2.802923 -0.497017 -11.795502 7.091677 -5.180500 -0.000001 -71.112100
0.473810 17.477188 1.287186 10.013569 -64.869076 11.142925 -9.402346 2.891534 8.070983 -5.374911 -8.491387 -24.613106 -2.403302 -1.723220 1.577106 0.443241 6.484713 8.152358 2.437600 0.000000 -54.807600 11.343915 -3.368094 1.858444 5.671936 -22.625212 -16.716421 2.671007 1.473677 -2.732759 -0.521360 -12.076615 7.498171 -5.338400 -0.000000 -71.340500
0.507647 17.494138 1.299102 9.994379 -63.879260 10.978287 -9.396574 2.773911 7.990553 -5.334921 -8.985870 -24.099825 -2.428817 -1.733629 1.080570 0.375454 6.285199 8.725840 2.448800 -0.000001 -54.530300 11.375918 -3.372875 1.568930 5.579865 -23.371733 -16.378194 2.656179 1.393519 -2.803388 -0.575150 -12.334855 7.953251 -5.468600 -0.000000 -71.531900
0.541459 17.509567 1.309813 9.959870 -63.051246 10.850788 -9.397968 2.663527 7.890224 -5.320178 -9.349804 -23.622563 -2.456694 -1.740321 0.608112 0.311868 6.069107 9.245703 2.443500 0.000000 -54.230700 11.400677 -3.366718 1.295361 5.510558 -24.047762 -16.038364 2.646504 1.333612 -2.988069 -0.654584 -12.575305 8.430847 -5.573100 0.000000 -71.679700
0.572790 17.522881 1.319627 10.006305 -62.371935 10.703599 -9.418533 2.559176 7.785416 -5.342246 -9.623812 -23.211008 -2.487364 -1.745594 0.154311 0.251259 5.835717 9.721182 2.423700 0.000000 -53.921600 11.404665 -3.349621 1.044214 5.446204 -24.643422 -15.733969 2.640054 1.294391 -3.263282 -0.755921 -12.811828 8.896859 -5.658701 -0.000000 -71.773500
0.601658 17.534000 1.328306 10.112883 -61.796679 10.543446 -9.443244 2.462898 7.678839 -5.396931 -9.840758 -22.848998 -2.521494 -1.749608 -0.282586 0.193460 5.587397 10.159791 2.391400 0.000000 -53.616200 11.403539 -3.319182 0.812191 5.371413 -25.169249 -15.449722 2.632041 1.271222 -3.600116 -0.873554 -13.048227 9.330725 -5.728300 -0.000000 -71.809000
0.627407 17.542758 1.335911 10.284325 -61.295175 10.363771 -9.466497 2.375148 7.577298 -5.484333 -10.025145 -22.535914 -2.560246 -1.753563 -0.704077 0.137625 5.323460 10.565869 2.347500 -0.000000 -53.322700 11.402382 -3.275926 0.604433 5.274583 -25.617011 -15.188122 2.618105 1.261142 -3.971913 -1.003652 -13.301346 9.709373 -5.790900 -0.000000 -71.788300
0.649507 17.549080 1.342502 10.517863 -60.840107 10.158781 -9.483655 2.296415 7.486164 -5.601687 -10.196850 -22.259642 -2.604193 -1.758489 -1.114342 0.083095 5.044862 10.943042 2.293200 0.000000 -53.047900 11.405701 -3.221914 0.422481 5.146701 -25.993478 -14.942848 2.596168 1.260671 -4.356026 -1.141765 -13.574742 10.019831 -5.849400 0.000000 -71.712600
0.667607 17.552908 1.348263 10.802651 -60.412334 9.930355 -9.491640 2.226663 7.409439 -5.744993 -10.365265 -22.012274 -2.653781 -1.765482 -1.515635 0.029126 4.750755 11.291250 2.228800 0.000000 -52.795100 11.416156 -3.160299 0.269979 4.985802 -26.296624 -14.711343 2.564253 1.266890 -4.732367 -1.284999 -13.878588 10.252467 -5.910000 -0.000001 -71.596300
0.681599 17.554351 1.353486 11.122263 -59.996869 9.684008 -9.489137 2.165218 7.348403 -5.908759 -10.533214 -21.782906 -2.708804 -1.775287 -1.909471 -0.024848 4.440785 11.609528 2.154400 -0.000000 -52.565300 11.435046 -3.094769 0.146875 4.793775 -26.534297 -14.488181 2.522441 1.276997 -5.086545 -1.430353 -14.212659 10.405499 -5.974200 -0.000000 -71.443001
0.691563 17.553548 1.358487 11.457704 -59.584679 9.430003 -9.476755 2.110466 7.302131 -6.086287 -10.698352 -21.563988 -2.768556 -1.788447 -2.295948 -0.079188 4.114707 11.895017 2.070101 -0.000000 -52.357200 11.461687 -3.029000 0.051353 4.578411 -26.714328 -14.271461 2.471772 1.288546 -5.406968 -1.575346 -14.576375 10.482126 -6.043600 0.000000 -71.266700
